<mxfile host="app.diagrams.net" modified="2022-07-14T14:03:23.703Z" agent="5.0 (Macintosh; Intel Mac OS X 10_15_7) AppleWebKit/537.36 (KHTML, like Gecko) Chrome/103.0.0.0 Safari/537.36" etag="fwL-ok0Mk8j3LDfvGYG6" version="20.0.4" type="github">
  <diagram id="QMackaQfXWtLh7NZgC4T" name="Page-1">
    <mxGraphModel dx="946" dy="621" grid="0" gridSize="10" guides="1" tooltips="1" connect="1" arrows="1" fold="1" page="1" pageScale="1" pageWidth="827" pageHeight="1169" math="0" shadow="0">
      <root>
        <mxCell id="0" />
        <mxCell id="1" parent="0" />
        <mxCell id="XsZDXWXORTh2Q_iXp8Mi-2" value="DIFC数据访问控制节点" style="rounded=1;whiteSpace=wrap;html=1;" vertex="1" parent="1">
          <mxGeometry x="160" y="380" width="120" height="60" as="geometry" />
        </mxCell>
        <mxCell id="XsZDXWXORTh2Q_iXp8Mi-9" style="edgeStyle=orthogonalEdgeStyle;rounded=0;orthogonalLoop=1;jettySize=auto;html=1;exitX=0;exitY=0.5;exitDx=0;exitDy=0;" edge="1" parent="1" source="XsZDXWXORTh2Q_iXp8Mi-3" target="XsZDXWXORTh2Q_iXp8Mi-2">
          <mxGeometry relative="1" as="geometry" />
        </mxCell>
        <mxCell id="XsZDXWXORTh2Q_iXp8Mi-10" style="edgeStyle=orthogonalEdgeStyle;rounded=0;orthogonalLoop=1;jettySize=auto;html=1;exitX=1;exitY=0.5;exitDx=0;exitDy=0;" edge="1" parent="1" source="XsZDXWXORTh2Q_iXp8Mi-3" target="XsZDXWXORTh2Q_iXp8Mi-8">
          <mxGeometry relative="1" as="geometry" />
        </mxCell>
        <mxCell id="XsZDXWXORTh2Q_iXp8Mi-3" value="信任评估引擎" style="rounded=1;whiteSpace=wrap;html=1;" vertex="1" parent="1">
          <mxGeometry x="340" y="380" width="120" height="60" as="geometry" />
        </mxCell>
        <mxCell id="XsZDXWXORTh2Q_iXp8Mi-25" style="edgeStyle=orthogonalEdgeStyle;rounded=0;orthogonalLoop=1;jettySize=auto;html=1;exitX=0.5;exitY=0;exitDx=0;exitDy=0;entryX=0.5;entryY=1;entryDx=0;entryDy=0;" edge="1" parent="1" source="XsZDXWXORTh2Q_iXp8Mi-4" target="XsZDXWXORTh2Q_iXp8Mi-3">
          <mxGeometry relative="1" as="geometry" />
        </mxCell>
        <mxCell id="XsZDXWXORTh2Q_iXp8Mi-4" value="PBAC基于策略的访问控制" style="rounded=1;whiteSpace=wrap;html=1;" vertex="1" parent="1">
          <mxGeometry x="340" y="510" width="120" height="60" as="geometry" />
        </mxCell>
        <mxCell id="XsZDXWXORTh2Q_iXp8Mi-6" value="访问策略" style="text;html=1;strokeColor=none;fillColor=none;align=center;verticalAlign=middle;whiteSpace=wrap;rounded=0;" vertex="1" parent="1">
          <mxGeometry x="370" y="580" width="60" height="30" as="geometry" />
        </mxCell>
        <mxCell id="XsZDXWXORTh2Q_iXp8Mi-8" value="DIFC数据访问控制节点" style="rounded=1;whiteSpace=wrap;html=1;" vertex="1" parent="1">
          <mxGeometry x="520" y="380" width="120" height="60" as="geometry" />
        </mxCell>
        <mxCell id="XsZDXWXORTh2Q_iXp8Mi-26" style="edgeStyle=orthogonalEdgeStyle;rounded=0;orthogonalLoop=1;jettySize=auto;html=1;exitX=0.875;exitY=0.5;exitDx=0;exitDy=0;exitPerimeter=0;" edge="1" parent="1" source="XsZDXWXORTh2Q_iXp8Mi-12">
          <mxGeometry relative="1" as="geometry">
            <mxPoint x="330" y="530" as="targetPoint" />
          </mxGeometry>
        </mxCell>
        <mxCell id="XsZDXWXORTh2Q_iXp8Mi-12" value="用户进程A" style="ellipse;shape=cloud;whiteSpace=wrap;html=1;" vertex="1" parent="1">
          <mxGeometry x="160" y="490" width="120" height="80" as="geometry" />
        </mxCell>
        <mxCell id="XsZDXWXORTh2Q_iXp8Mi-27" style="edgeStyle=orthogonalEdgeStyle;rounded=0;orthogonalLoop=1;jettySize=auto;html=1;exitX=0.07;exitY=0.4;exitDx=0;exitDy=0;exitPerimeter=0;" edge="1" parent="1" source="XsZDXWXORTh2Q_iXp8Mi-13">
          <mxGeometry relative="1" as="geometry">
            <mxPoint x="470" y="522" as="targetPoint" />
          </mxGeometry>
        </mxCell>
        <mxCell id="XsZDXWXORTh2Q_iXp8Mi-13" value="用户进程B" style="ellipse;shape=cloud;whiteSpace=wrap;html=1;" vertex="1" parent="1">
          <mxGeometry x="520" y="490" width="120" height="80" as="geometry" />
        </mxCell>
        <mxCell id="XsZDXWXORTh2Q_iXp8Mi-28" style="edgeStyle=orthogonalEdgeStyle;rounded=0;orthogonalLoop=1;jettySize=auto;html=1;exitX=0.5;exitY=1;exitDx=0;exitDy=0;entryX=0.5;entryY=0;entryDx=0;entryDy=0;" edge="1" parent="1" source="XsZDXWXORTh2Q_iXp8Mi-16" target="XsZDXWXORTh2Q_iXp8Mi-3">
          <mxGeometry relative="1" as="geometry" />
        </mxCell>
        <mxCell id="XsZDXWXORTh2Q_iXp8Mi-16" value="安全分析引擎" style="rounded=1;whiteSpace=wrap;html=1;" vertex="1" parent="1">
          <mxGeometry x="340" y="215" width="120" height="60" as="geometry" />
        </mxCell>
        <mxCell id="XsZDXWXORTh2Q_iXp8Mi-18" value="数据流F1" style="ellipse;whiteSpace=wrap;html=1;" vertex="1" parent="1">
          <mxGeometry x="160" y="205" width="120" height="80" as="geometry" />
        </mxCell>
        <mxCell id="XsZDXWXORTh2Q_iXp8Mi-20" value="数据流F2" style="ellipse;whiteSpace=wrap;html=1;" vertex="1" parent="1">
          <mxGeometry x="520" y="205" width="120" height="80" as="geometry" />
        </mxCell>
        <mxCell id="XsZDXWXORTh2Q_iXp8Mi-29" value="" style="endArrow=classic;startArrow=classic;html=1;rounded=0;exitX=0.5;exitY=0;exitDx=0;exitDy=0;entryX=0.5;entryY=1;entryDx=0;entryDy=0;" edge="1" parent="1" source="XsZDXWXORTh2Q_iXp8Mi-2" target="XsZDXWXORTh2Q_iXp8Mi-18">
          <mxGeometry width="50" height="50" relative="1" as="geometry">
            <mxPoint x="230" y="335" as="sourcePoint" />
            <mxPoint x="280" y="285" as="targetPoint" />
          </mxGeometry>
        </mxCell>
        <mxCell id="XsZDXWXORTh2Q_iXp8Mi-30" value="" style="endArrow=classic;startArrow=classic;html=1;rounded=0;entryX=0.5;entryY=1;entryDx=0;entryDy=0;" edge="1" parent="1">
          <mxGeometry width="50" height="50" relative="1" as="geometry">
            <mxPoint x="220" y="500" as="sourcePoint" />
            <mxPoint x="219.5" y="440" as="targetPoint" />
          </mxGeometry>
        </mxCell>
        <mxCell id="XsZDXWXORTh2Q_iXp8Mi-31" value="" style="endArrow=classic;startArrow=classic;html=1;rounded=0;entryX=0.5;entryY=1;entryDx=0;entryDy=0;" edge="1" parent="1">
          <mxGeometry width="50" height="50" relative="1" as="geometry">
            <mxPoint x="580" y="500" as="sourcePoint" />
            <mxPoint x="579.5" y="440" as="targetPoint" />
          </mxGeometry>
        </mxCell>
        <mxCell id="XsZDXWXORTh2Q_iXp8Mi-32" value="" style="endArrow=classic;startArrow=classic;html=1;rounded=0;exitX=0.5;exitY=0;exitDx=0;exitDy=0;entryX=0.5;entryY=1;entryDx=0;entryDy=0;" edge="1" parent="1">
          <mxGeometry width="50" height="50" relative="1" as="geometry">
            <mxPoint x="579.5" y="380" as="sourcePoint" />
            <mxPoint x="579.5" y="285" as="targetPoint" />
          </mxGeometry>
        </mxCell>
        <mxCell id="XsZDXWXORTh2Q_iXp8Mi-35" value="零信任网络" style="ellipse;shape=cloud;whiteSpace=wrap;html=1;" vertex="1" parent="1">
          <mxGeometry x="160" y="68" width="120" height="80" as="geometry" />
        </mxCell>
        <mxCell id="XsZDXWXORTh2Q_iXp8Mi-36" value="零信任网络" style="ellipse;shape=cloud;whiteSpace=wrap;html=1;" vertex="1" parent="1">
          <mxGeometry x="520" y="68" width="120" height="80" as="geometry" />
        </mxCell>
        <mxCell id="XsZDXWXORTh2Q_iXp8Mi-38" value="" style="endArrow=classic;startArrow=classic;html=1;rounded=0;entryX=0.5;entryY=1;entryDx=0;entryDy=0;" edge="1" parent="1">
          <mxGeometry width="50" height="50" relative="1" as="geometry">
            <mxPoint x="220" y="205" as="sourcePoint" />
            <mxPoint x="219.5" y="145" as="targetPoint" />
          </mxGeometry>
        </mxCell>
        <mxCell id="XsZDXWXORTh2Q_iXp8Mi-39" value="" style="endArrow=classic;startArrow=classic;html=1;rounded=0;entryX=0.5;entryY=1;entryDx=0;entryDy=0;" edge="1" parent="1">
          <mxGeometry width="50" height="50" relative="1" as="geometry">
            <mxPoint x="580" y="203" as="sourcePoint" />
            <mxPoint x="579.5" y="143" as="targetPoint" />
          </mxGeometry>
        </mxCell>
        <mxCell id="XsZDXWXORTh2Q_iXp8Mi-40" value="" style="endArrow=classic;startArrow=classic;html=1;rounded=0;exitX=0.875;exitY=0.5;exitDx=0;exitDy=0;exitPerimeter=0;entryX=0.16;entryY=0.55;entryDx=0;entryDy=0;entryPerimeter=0;" edge="1" parent="1" source="XsZDXWXORTh2Q_iXp8Mi-35" target="XsZDXWXORTh2Q_iXp8Mi-36">
          <mxGeometry width="50" height="50" relative="1" as="geometry">
            <mxPoint x="381" y="131" as="sourcePoint" />
            <mxPoint x="431" y="81" as="targetPoint" />
          </mxGeometry>
        </mxCell>
      </root>
    </mxGraphModel>
  </diagram>
</mxfile>
